<?xml version="1.0" encoding="UTF-8"?> <!-- Generator: Adobe Illustrator 23.0.1, SVG Export Plug-In . SVG Version: 6.00 Build 0) --> <svg xmlns="http://www.w3.org/2000/svg" xmlns:xlink="http://www.w3.org/1999/xlink" id="Laag_1" x="0px" y="0px" viewBox="0 0 399 188" style="enable-background:new 0 0 399 188;" xml:space="preserve"> <style type="text/css"> .st0{fill:#FFFFFF;} </style> <g> <g> <path class="st0" d="M145.5,145.3l26.9-29h-25.5v-10h40.6v11l-27.1,28.9h28.5v10.1h-43.2v-11H145.5z"></path> <path class="st0" d="M193.1,89.3c0-1.9,0.9-3.8,2.3-5.2c1.6-1.6,3.5-2.3,5.6-2.3s4.2,0.7,5.8,2.1c3,2.8,3.1,7.3,0.3,10.3 c-0.2,0.2-0.3,0.3-0.3,0.3c-1.6,1.4-3.7,2.3-5.8,2.1c-2.1,0-4.2-0.7-5.6-2.3C193.8,93.2,193.1,91.3,193.1,89.3z M194.8,106.3h12.4 v50h-12.4V106.3z"></path> <path class="st0" d="M217.6,77.4H230v78.9h-12.4V77.4z"></path> <path class="st0" d="M240.3,77.4h12.4v78.9h-12.4V77.4z"></path> <path class="st0" d="M261.3,89.3c0-1.9,0.9-3.8,2.3-5.2c1.6-1.6,3.5-2.3,5.6-2.3c2.1,0,4.2,0.7,5.8,2.1c3,2.8,3.1,7.3,0.3,10.3 c-0.2,0.2-0.3,0.3-0.3,0.3c-1.6,1.4-3.7,2.3-5.8,2.1c-2.1,0-4.2-0.7-5.6-2.3C262,93.2,261.3,91.3,261.3,89.3z M263.1,106.3h12.4 v50h-12.4V106.3z"></path> <path class="st0" d="M336.5,181.3h-12.6v-31.7h-0.2c-1.7,2.6-4,4.7-6.8,5.9c-3,1.4-6.3,2.3-9.8,2.1c-3.5,0-7-0.7-10.3-2.1 c-3-1.4-5.6-3.3-7.7-5.8c-2.1-2.4-3.8-5.4-4.9-8.4c-1.2-3.3-1.7-6.8-1.7-10.3c0-3.5,0.5-7,1.7-10.3c1-3.1,2.8-5.9,5.1-8.4 c4.5-4.9,10.8-7.7,17.5-7.5c2.1,0,4.2,0.2,6.1,0.7c1.7,0.5,3.3,1,4.9,1.9c1.4,0.7,2.6,1.6,3.7,2.8c0.9,0.9,1.7,1.9,2.4,3h0.3v-7 h12.1L336.5,181.3z M295.2,131.1c0,1.9,0.3,4,0.9,5.8c0.5,1.9,1.4,3.7,2.6,5.2c1.2,1.6,2.8,2.8,4.5,3.8c4,1.9,8.6,1.9,12.4,0 c1.7-0.9,3.3-2.1,4.5-3.7c1.2-1.6,2.3-3.3,3-5.2c0.7-1.9,1-3.8,1-5.8c0-1.9-0.3-4-1-5.8c-0.7-1.9-1.6-3.7-3-5.2 c-1.2-1.6-2.8-2.8-4.5-3.8c-1.9-1-4-1.6-6.1-1.4c-2.3,0-4.4,0.3-6.3,1.4c-1.7,0.9-3.3,2.1-4.5,3.7c-1.2,1.6-2.1,3.3-2.6,5.2 C295.6,127.1,295.2,129.2,295.2,131.1L295.2,131.1z"></path> <path class="st0" d="M377.3,150h-0.3c-1.4,2.4-3.5,4.4-6.1,5.4c-3,1.4-6.1,2.3-9.4,2.1c-2.1,0-4.2-0.3-6.3-0.7 c-2.1-0.5-4.2-1.4-6.1-2.6c-1.9-1.2-3.5-2.8-4.5-4.7c-1.2-2.3-1.9-4.7-1.7-7.3c-0.2-3.3,1-6.5,3.1-8.9c2.3-2.3,5.1-4,8.2-5.1 c3.7-1.2,7.3-2.1,11.2-2.3c4-0.3,8-0.5,11.9-0.5v-1.2c0.2-2.8-1-5.4-3.3-7c-2.4-1.6-5.2-2.3-8-2.3c-2.6,0-5.2,0.7-7.7,1.7 c-2.3,1-4.4,2.3-6.1,4l-6.5-7.5c2.8-2.6,6.1-4.7,9.8-5.9c3.7-1.2,7.5-1.9,11.4-1.9c3.7-0.2,7.5,0.5,11,1.9c2.6,1,4.9,2.8,6.8,4.9 c1.6,1.9,2.8,4.4,3.5,6.8c0.7,2.4,1,4.9,1,7.5v30.4h-11.7L377.3,150z M377.1,133.6h-2.8c-2.1,0-4.2,0-6.3,0.3 c-2.1,0.2-4.2,0.5-6.1,1.2c-1.7,0.5-3.3,1.4-4.7,2.4c-1.2,1-1.9,2.8-1.9,4.4c0,1,0.2,2.1,0.9,3c0.5,0.9,1.2,1.4,2.1,1.9 c0.9,0.5,1.7,0.9,2.8,1c1,0.2,2.1,0.3,3.1,0.3c3.7,0.2,7.2-1,9.8-3.5c2.3-2.6,3.5-5.9,3.3-9.4L377.1,133.6z"></path> </g> <g> <path class="st0" d="M34,33.5c0.2,1.5,0,4-0.3,5.3H22.3l-5.4,51.6c-1.1,0.2-3,0.4-4.6,0.4c-1.3,0-2.8-0.1-3.6-0.4L15,38.9H8 c0.2-1.5,1-3.6,1.7-4.8c1.7-0.6,3.9-1.2,5.9-1.6l0.6-5c1.7-12.9,9.5-17.9,17.9-17.9c2.6,0,5.8,0.5,8.9,1.6c0,3.1-1.3,8.1-2.6,10.8 c-1.4,0-3.7-0.7-4.9-1.5l0.8-5.8c-0.7-0.5-2-0.6-2.8-0.6c-4.3,0-9,2.9-10.1,12.7l-0.8,6.7H34z"></path> <path class="st0" d="M58,71.5c-3.4,4.9-8.7,6.8-13,6.8c-6.8,0-11.9-4.8-11.9-16.4c0-7.7,2.1-15.3,6.1-20.8c4-5.4,9.7-9.1,17.1-9.1 c5.8,0,10.6,1.9,13.7,4.1l-4.4,33.7c0,0.3,0.3,1.5,0.5,1.9l7.2-0.6c0,1.3-0.7,3.9-1.5,5.1c-2.8,1.1-8.4,2.1-10.9,2.1 c-1-1.7-2-4.6-2.4-6.8H58z M62.2,38.2c-1.6-0.9-4-1.4-6-1.4c-5,0-8.9,3.1-11.2,6.9c-2.8,4.6-4,11.9-4,17.1c0,7.8,3,11.2,7.7,11.2 c3.7,0,7.4-2.6,9.6-6.7L62.2,38.2z"></path> <path class="st0" d="M105,38.7c-1.3-0.8-3.2-1.4-4.7-1.4c-4.1,0-7.7,2.3-10,5.9c-2.6,4-3.8,9.6-3.8,16.3c0,8.6,2.8,12.1,8.4,12.1 c4.2,0,10.3-2.3,13.5-4c0,1.6-0.6,4.1-1.3,5.4c-3.3,2.5-9.2,5.3-15.3,5.3c-9.2,0-13.6-6.3-13.6-16.7c0-8.2,2.3-15.5,6.3-21 c3.9-5.1,10.3-8.5,16.9-8.5c4.2,0,7.7,1.3,10.3,3.3c0,3.8-0.9,7.9-2.4,11.1c-1.5,0-4-0.5-5.1-1.2L105,38.7z"></path> <path class="st0" d="M124,57.7v2.8c0,7.5,2.6,11.2,7.6,11.2c4,0,9.8-1.7,13.8-4.3c0,1.7-0.5,3.8-1.1,5.1c-3.5,3-9.2,5.9-16,5.9 c-8.2,0-12.5-5.8-12.5-15.6c0-8.1,1.8-17,6.9-23.1c3.7-4.4,9.3-7.6,15.9-7.6c6.5,0,10.6,3.9,10.6,10.1 C149.2,49.4,144.6,56.9,124,57.7z M127.6,42.7c-1.7,2.8-2.6,6.2-3,9.6c15.2-0.6,17.2-5.2,17.2-9.8c0-3.1-1.4-5.6-4.8-5.6 C133.2,36.9,129.6,39.2,127.6,42.7z"></path> <path class="st0" d="M176.8,38c-1.5-0.7-3.2-1.2-5.5-1.2c-3.6,0-6.5,1.9-6.5,5.5c0,9.2,16.9,10.6,16.9,22c0,9.6-8.2,14-16.7,14 c-7.3,0-13-2.6-13-9.3c0.9-1.8,4.6-3.3,7.4-3.3c0.3,5.4,2.8,7.4,7.7,7.4c3.9,0,7.3-2.3,7.3-6.2c0-9-16.9-9.7-16.9-22 c0-7.3,5.1-13,15.2-13c3.5,0,7.3,0.8,10.6,2.3c0,3-0.8,7.3-1.7,10.2c-1.5,0-4-0.6-5.1-1.4L176.8,38z"></path> </g> <g> <path class="st0" d="M59.1,139.2c0-7.2,1.6-13.6,4.6-18.6c3.9-6.2,10-10.1,17.3-10.1c9.4,0,15.2,6.2,15.2,17.2 c0,8.1-2,15.5-5.7,20.8c-3.7,5.2-9.6,8.4-16.2,8.4C64.5,156.9,59.1,150.8,59.1,139.2z M84.7,145.1c2.5-4.3,3.6-10.6,3.6-16.5 c0-7.4-2.8-12.7-8-12.7c-4.6,0-8.2,3-10.4,7.3c-2.1,4.2-2.8,9.6-2.8,15.2c0,8,2.8,13,8.1,13C79.3,151.4,82.5,149,84.7,145.1z"></path> <path class="st0" d="M126.9,112.1c0.2,1.5,0,4-0.3,5.3h-11.5l-5.4,51.6c-1.1,0.2-3,0.4-4.6,0.4c-1.3,0-2.8-0.1-3.6-0.4l6.3-51.6 h-7.1c0.2-1.5,1-3.6,1.7-4.8c1.7-0.6,3.9-1.2,5.9-1.6l0.6-5c1.7-12.9,9.5-17.9,17.9-17.9c2.6,0,5.8,0.5,8.9,1.6 c0,3.1-1.3,8.1-2.6,10.8c-1.4,0-3.7-0.7-4.9-1.5l0.8-5.8c-0.7-0.5-2-0.6-2.8-0.6c-4.3,0-9,2.9-10.1,12.7l-0.8,6.7H126.9z"></path> </g> </g> </svg> 