<?xml version="1.0" encoding="UTF-8"?> <svg xmlns="http://www.w3.org/2000/svg" id="Laag_1" data-name="Laag 1" viewBox="0 0 400 400"> <defs> <style>.cls-1{fill:#fff;}</style> </defs> <path class="cls-1" d="M199.26,397A194.24,194.24,0,0,1,62,65.35a194.25,194.25,0,0,1,331.6,137.4A194.27,194.27,0,0,1,199.26,397Zm0-385.9A191.71,191.71,0,0,0,7.56,202.75a191.88,191.88,0,0,0,191.8,191.7,191.63,191.63,0,0,0,135.5-327.3A190.54,190.54,0,0,0,199.26,11.05Z"></path> <path class="cls-1" d="M57.51,194.31c-8.61,0-15-6-15-14.76,0-9,6.63-14.68,15.16-14.68,3.9,0,8.13,1.42,10.45,4.11l-4.57,4.57A7,7,0,0,0,57.86,171c-4.69,0-8,3.63-8,8.56,0,5.09,3.28,8.57,7.93,8.57a7.14,7.14,0,0,0,5.92-2.84l4.7,4.42A13.88,13.88,0,0,1,57.51,194.31Z"></path> <path class="cls-1" d="M69.9,176.59a12.87,12.87,0,0,1,8.76-3.31c6.59,0,9,3.23,9,10.38v9.9H81.78v-2.09h-.12c-1,1.62-3.24,2.57-5.57,2.57C73,194,69,192.5,69,187.88c0-5.68,6.91-6.63,12.63-6.63v-.32c0-1.93-1.54-2.84-3.55-2.84a7.44,7.44,0,0,0-4.86,2ZM81.78,185H81c-2.84,0-6,.35-6,2.68,0,1.5,1.5,2,2.8,2a3.73,3.73,0,0,0,4.07-4Z"></path> <path class="cls-1" d="M99.14,178.76v7.5c0,1.82.59,2.76,2.45,2.76a5.51,5.51,0,0,0,1.89-.31l.08,4.73a12.1,12.1,0,0,1-3.75.6c-5.25,0-7-2.81-7-7v-8.29H89.67v-4.85h3.12v-5.17h6.35v5.17h4.62v4.85Z"></path> <path class="cls-1" d="M106.52,176.59a12.87,12.87,0,0,1,8.76-3.31c6.59,0,9,3.23,9,10.38v9.9H118.4v-2.09h-.12c-1,1.62-3.24,2.57-5.57,2.57-3.11,0-7.14-1.54-7.14-6.16,0-5.68,6.91-6.63,12.63-6.63v-.32c0-1.93-1.54-2.84-3.55-2.84a7.44,7.44,0,0,0-4.86,2ZM118.4,185h-.83c-2.84,0-6,.35-6,2.68,0,1.5,1.5,2,2.8,2a3.73,3.73,0,0,0,4.07-4Z"></path> <path class="cls-1" d="M129.21,193.56V163.73h6.55v29.83Z"></path> <path class="cls-1" d="M152,196.52c-1.58,4.11-3.71,6.51-8.65,6.51a15.76,15.76,0,0,1-3.55-.43l.71-5.45a7.64,7.64,0,0,0,2.09.36c2,0,2.69-.95,3.32-2.64l.63-1.62-8.21-19.34h7.19l4.38,12.63H150l3.91-12.63h6.87Z"></path> <path class="cls-1" d="M174.83,179.71a6.13,6.13,0,0,0-4.11-1.77c-1.22,0-2.45.43-2.45,1.57s1.07,1.42,3.6,2c3,.67,6.27,2.17,6.27,6,0,5-4.38,6.7-8.41,6.7a12.69,12.69,0,0,1-8.56-3l3.63-3.83a6.7,6.7,0,0,0,4.82,2.21c1.06,0,2.32-.44,2.32-1.7s-1.22-1.62-3.9-2.25-5.73-2-5.73-5.72c0-4.7,4.42-6.59,8.17-6.59a11.81,11.81,0,0,1,7.9,2.76Z"></path> <path class="cls-1" d="M185.2,171.19a3.56,3.56,0,1,1,3.71-3.56A3.63,3.63,0,0,1,185.2,171.19ZM182,193.56V173.91h6.47v19.65Z"></path> <path class="cls-1" d="M206.47,193.56V182.83c0-2.17-.59-4.15-2.92-4.15s-3.47,2-3.47,4.23v10.65h-6.51V173.91h6.27v2.72h.08a6.72,6.72,0,0,1,5.88-3.27c5.29,0,7.18,4.1,7.18,8v12.15Z"></path> <path class="cls-1" d="M227.15,203a18,18,0,0,1-10.1-3.07l3.23-4.62a10,10,0,0,0,6.51,2.49c3.79,0,5.57-2.21,5.57-5.49v-1.18h-.12a7.4,7.4,0,0,1-6,2.6c-6,0-9.39-4.66-9.39-10.1s3.43-10.3,9.35-10.3a7.36,7.36,0,0,1,6.28,3.08h.08v-2.53h6.11v17.8C238.71,199.4,234.14,203,227.15,203Zm.63-24.38c-2.92,0-4.62,2.24-4.62,5s1.7,5,4.62,5a5,5,0,0,0,0-10Z"></path> <path class="cls-1" d="M268,194.31c-8.72,0-15.19-6-15.19-14.84s6.47-14.6,15.19-14.6,15.24,5.65,15.24,14.6S276.71,194.31,268,194.31ZM268,171c-4.73,0-8,3.63-8,8.52,0,5.06,3.28,8.69,8,8.69s8-3.63,8-8.69C276,174.58,272.69,171,268,171Z"></path> <path class="cls-1" d="M299.8,194.12a7.39,7.39,0,0,1-6-2.73h-.08V203h-6.47V173.91h6.15v2.41h.12a7.82,7.82,0,0,1,6.28-3c5.72,0,9.31,4.81,9.31,10.3S305.72,194.12,299.8,194.12Zm-1.54-15.47a5.06,5.06,0,0,0,0,10.1c3.08,0,4.62-2.53,4.62-5.09S301.34,178.65,298.26,178.65Z"></path> <path class="cls-1" d="M332.67,185.51H318.42c.2,2.17,2.37,3.71,4.7,3.71a5.15,5.15,0,0,0,4.34-2.05L332,190c-1.85,2.69-4.93,4.18-8.92,4.18-5.92,0-10.81-3.75-10.81-10.37,0-6.44,4.65-10.54,10.61-10.54,5.8,0,9.87,4,9.87,10.69C332.71,184.49,332.71,185,332.67,185.51Zm-5.92-4a3.57,3.57,0,0,0-3.87-3.75,4.28,4.28,0,0,0-4.46,3.75Z"></path> <path class="cls-1" d="M349.64,193.56V182.83c0-2.17-.59-4.15-2.92-4.15s-3.48,2-3.48,4.23v10.65h-6.51V173.91H343v2.72h.08a6.69,6.69,0,0,1,5.88-3.27c5.29,0,7.18,4.1,7.18,8v12.15Z"></path> <path class="cls-1" d="M117.92,241.67c-8.6,0-15-6-15-14.76,0-9,6.63-14.68,15.15-14.68,3.91,0,8.13,1.42,10.46,4.1l-4.58,4.58a7,7,0,0,0-5.64-2.57c-4.7,0-8,3.63-8,8.57,0,5.09,3.27,8.56,7.93,8.56a7.12,7.12,0,0,0,5.92-2.84l4.7,4.42A13.9,13.9,0,0,1,117.92,241.67Z"></path> <path class="cls-1" d="M140.73,241.55c-5.92,0-10.89-4.11-10.89-10.54s5-10.38,10.89-10.38,10.93,4,10.93,10.38S146.69,241.55,140.73,241.55Zm0-15.55c-3,0-4.62,2.49-4.62,5s1.62,5.09,4.66,5.09,4.66-2.56,4.66-5.09A4.73,4.73,0,0,0,140.73,226Z"></path> <path class="cls-1" d="M180.86,240.92V230.18c0-2.25-.51-4.14-2.8-4.14s-3.27,2.05-3.27,4.26v10.62h-6.48V229.71c0-2.25-.86-3.67-2.8-3.67s-3.23,1.85-3.23,4.22v10.66h-6.52V221.26H162V224h.08a6.57,6.57,0,0,1,5.88-3.28,6.2,6.2,0,0,1,5.92,3.35,7,7,0,0,1,6.27-3.35c5.33,0,7.15,4.34,7.15,8v12.16Z"></path> <path class="cls-1" d="M217.33,240.92V230.18c0-2.25-.52-4.14-2.81-4.14s-3.27,2.05-3.27,4.26v10.62h-6.47V229.71c0-2.25-.87-3.67-2.81-3.67s-3.23,1.85-3.23,4.22v10.66h-6.51V221.26h6.27V224h.08a6.57,6.57,0,0,1,5.88-3.28,6.19,6.19,0,0,1,5.92,3.35,7,7,0,0,1,6.28-3.35c5.32,0,7.14,4.34,7.14,8v12.16Z"></path> <path class="cls-1" d="M248.15,232.87H233.9c.2,2.17,2.37,3.71,4.69,3.71a5.14,5.14,0,0,0,4.35-2.06l4.5,2.84c-1.86,2.69-4.94,4.19-8.92,4.19-5.92,0-10.82-3.75-10.82-10.38,0-6.43,4.66-10.54,10.62-10.54,5.8,0,9.86,4,9.86,10.7C248.18,231.84,248.18,232.39,248.15,232.87Zm-5.92-4a3.58,3.58,0,0,0-3.87-3.75,4.28,4.28,0,0,0-4.46,3.75Z"></path> <path class="cls-1" d="M265,226.55a6.31,6.31,0,0,0-1.66-.2,4.44,4.44,0,0,0-4.62,4.46v10.11h-6.47V221.26h6.23v2.84h.08a5.94,5.94,0,0,1,5.33-3.39,4.51,4.51,0,0,1,1.38.16Z"></path> <path class="cls-1" d="M280.66,227.62a4.49,4.49,0,0,0-3.43-1.58c-2.73,0-4.54,2.33-4.54,5.05s1.77,5,4.62,5a4.69,4.69,0,0,0,3.51-1.46l3.59,4.38a10.65,10.65,0,0,1-7.26,2.53c-6.2,0-11-4-11-10.46s4.85-10.46,11-10.46a10.82,10.82,0,0,1,7.3,2.65Z"></path> <path class="cls-1" d="M306.43,232.87H292.18c.2,2.17,2.37,3.71,4.7,3.71a5.13,5.13,0,0,0,4.34-2.06l4.5,2.84c-1.86,2.69-4.93,4.19-8.92,4.19-5.92,0-10.81-3.75-10.81-10.38,0-6.43,4.65-10.54,10.61-10.54,5.8,0,9.87,4,9.87,10.7C306.47,231.84,306.47,232.39,306.43,232.87Zm-5.92-4a3.57,3.57,0,0,0-3.87-3.75,4.29,4.29,0,0,0-4.46,3.75Z"></path> </svg> 