<?xml version="1.0" encoding="UTF-8"?> <!-- Generator: Adobe Illustrator 23.0.1, SVG Export Plug-In . SVG Version: 6.00 Build 0) --> <svg xmlns="http://www.w3.org/2000/svg" xmlns:xlink="http://www.w3.org/1999/xlink" id="Layer_1" x="0px" y="0px" viewBox="0 0 250 82" style="enable-background:new 0 0 250 82;" xml:space="preserve"> <style type="text/css"> .st0{fill:#FFFFFF;} </style> <g> <path class="st0" d="M23.3,52.7L8.7,26.3h17.1l7.7,16.4l12.9-16.4h17.5l-23.4,29l14.2,25.8H38l-7.7-15.8L17.8,81.1H0L23.3,52.7"></path> <path class="st0" d="M67,28.2l9.1-1.9l1.1-7.3C79.5,4.9,84.9,0,97.1,0c4.6,0,9.8,1.1,12.6,2.5l-1.3,8.7l-9.3-0.1 c-6.1-0.1-6.6,2.6-7.9,11.3l-0.6,3.9h13.2l-1.8,11H88.7L81.6,81H67.2l7.1-43.7h-8.7L67,28.2"></path> <path class="st0" d="M140.4,43c0.9-5.1-1.9-6.2-7.6-6.1c-9.8,0.1-10.7,6.4-12.1,13.2C120.7,50.1,138.6,53.1,140.4,43L140.4,43z M133.8,25.3c11.8-0.1,22.3,3.2,21.5,15.8c-1.7,25-31.9,20.1-35.7,18.6c-1.4,8.4,0.6,10.5,7.9,10.6c6.1,0.2,16-0.7,22.4-1.8 l-1.8,10.3c-8.2,2.5-17.1,3.7-28.6,3c-13.1-0.6-17.3-11.7-13.6-31.7C109.1,33.3,113.7,25.4,133.8,25.3"></path> <path class="st0" d="M165.5,26.3h12.2l1.1,6.9c4.4-3.7,10.1-7.4,16.9-7.4c2.4,0,4.6,0,6,0.6l-2.2,13.9c-1.4-0.1-4.7-0.3-7.8-0.3 c-6,0-10.5,1-15,6.1l-5.5,35h-14.4L165.5,26.3z"></path> <path class="st0" d="M202.3,69.8h25.8c0.9,0,3.6-0.1,4.2-3.5l0.5-2.8c0.3-2.3-0.2-3.5-3.2-3.5h-12.3c-9.7,0-15.2-5.4-13.5-15.9 l0.8-5c1.3-8.7,6-13.6,16.6-13.6c10.5,0,24.9,0.3,28.7,2.8l-1.4,9.1h-24.8c-3.7,0-4.5,1.9-4.8,3.8l-0.4,2.7c-0.7,4,1.8,3.5,3.7,3.5 h12.6c10.5,0,14,7.3,12.7,15.3l-0.9,6.3c-1.8,11.2-9.4,12.8-15.7,12.8c-10.4,0-26.6-0.4-30-3L202.3,69.8"></path> </g> </svg> 