<?xml version="1.0" encoding="UTF-8"?> <!-- Generator: Adobe Illustrator 23.0.1, SVG Export Plug-In . SVG Version: 6.00 Build 0) --> <svg xmlns="http://www.w3.org/2000/svg" xmlns:xlink="http://www.w3.org/1999/xlink" id="Layer_1" x="0px" y="0px" viewBox="0 0 100 100" style="enable-background:new 0 0 100 100;" xml:space="preserve"> <style type="text/css"> .st0{fill:#242626;} </style> <path class="st0" d="M40.7,71.4c-0.8,0-1.5,0.7-1.5,1.5v8.8c0,0.8,0.7,1.5,1.5,1.5s1.5-0.7,1.5-1.5v-8.8 C42.2,72,41.5,71.4,40.7,71.4z"></path> <path class="st0" d="M62.8,59.1c-0.8,0-1.5,0.7-1.5,1.5v21c0,0.8,0.7,1.5,1.5,1.5s1.5-0.7,1.5-1.5v-21 C64.3,59.8,63.6,59.1,62.8,59.1z"></path> <path class="st0" d="M82.3,35.5c-0.8,0-1.5,0.7-1.5,1.5v44.6c0,0.8,0.7,1.5,1.5,1.5s1.5-0.7,1.5-1.5V37 C83.8,36.2,83.1,35.5,82.3,35.5z"></path> <path class="st0" d="M15.8,82.9c0.4,0,0.8-0.2,1.1-0.4l63.9-63.9V25c0,0.8,0.7,1.5,1.5,1.5s1.5-0.7,1.5-1.5V15c0-0.2,0-0.4-0.1-0.5 l0,0c-0.2-0.4-0.4-0.7-0.8-0.8l0,0c-0.2-0.1-0.4-0.1-0.6-0.1h-10c-0.8,0-1.5,0.7-1.5,1.5s0.7,1.5,1.5,1.5h6.4l-64,63.8 c-0.6,0.6-0.6,1.5,0,2.1C15,82.8,15.4,82.9,15.8,82.9z"></path> </svg> 