<?xml version="1.0" encoding="UTF-8"?> <!-- Generator: Adobe Illustrator 23.0.1, SVG Export Plug-In . SVG Version: 6.00 Build 0) --> <svg xmlns="http://www.w3.org/2000/svg" xmlns:xlink="http://www.w3.org/1999/xlink" id="Layer_1" x="0px" y="0px" viewBox="0 0 100.4 100.4" style="enable-background:new 0 0 100.4 100.4;" xml:space="preserve"> <style type="text/css"> .st0{fill:#242626;} </style> <g> <path class="st0" d="M70.6,38.3C70.6,38.3,70.6,38.3,70.6,38.3c2.1,0,4.1-0.8,5.6-2.3c1.5-1.5,2.3-3.5,2.3-5.6l0,0c0-4.4-3.6-8-8-8 c0,0,0,0,0,0c-2.1,0-4.1,0.8-5.6,2.3c-1.5,1.5-2.3,3.5-2.3,5.6c0,2.1,0.8,4.1,2.3,5.6C66.4,37.5,68.4,38.3,70.6,38.3z M67.1,26.9 c0.9-0.9,2.2-1.5,3.5-1.5c0,0,0,0,0,0c2.7,0,5,2.2,5,5c0,1.3-0.5,2.6-1.5,3.5c-0.9,0.9-2.2,1.4-3.5,1.4c0,0,0,0,0,0 c-1.3,0-2.6-0.5-3.5-1.5c-0.9-0.9-1.5-2.2-1.5-3.5C65.6,29,66.1,27.8,67.1,26.9z"></path> <path class="st0" d="M96.6,85.4L81.3,49.7l5.2-8.3c0.1-0.1,0.1-0.2,0.1-0.3c1.8-3,2.7-6.3,2.7-9.7c0-5-1.9-9.8-5.5-13.3 c-3.5-3.6-8.3-5.5-13.3-5.5c0,0,0,0,0,0c-10.4,0-18.8,8.4-18.8,18.8c0,3.5,0.9,6.8,2.7,9.8c0,0.1,0.1,0.1,0.1,0.2l2.8,4.8H21.2 c-0.6,0-1.1,0.4-1.4,0.9L3.4,85.4c-0.2,0.5-0.2,1,0.1,1.4c0.3,0.4,0.7,0.7,1.3,0.7h90.5c0.5,0,1-0.3,1.3-0.7 C96.8,86.4,96.8,85.9,96.6,85.4z M57.2,39.7c-1.6-2.5-2.4-5.4-2.4-8.4c0-8.7,7.1-15.8,15.8-15.8c0,0,0,0,0,0 c4.2,0,8.2,1.7,11.2,4.7c3,3,4.6,7,4.6,11.2c0,0,0,0,0,0c0,2.9-0.8,5.8-2.4,8.4c-0.1,0.1-0.1,0.2-0.1,0.3L70.3,61.7l-8.9-15 c0,0,0,0,0-0.1l-4-6.7C57.3,39.9,57.2,39.8,57.2,39.7z M22.2,49h3.5c0.2,4.3,3.9,5.9,6.6,7.1c1.4,0.6,2.9,1.3,3.4,2.1 c0.7,1.3,0.3,2.1-1.2,4.1c-1.3,1.8-2.9,4.1-1.8,7c1.7,4.6,10.7,5.8,20.6,6.8c1.8,0.2,3.3,0.3,4.3,0.5c7.6,1.3,10.2,5.6,11,7.9H7 L22.2,49z M71.7,84.5C71,81.9,68.3,75.4,58,73.7c-1.1-0.2-2.7-0.3-4.5-0.5c-5.5-0.5-16.8-1.6-18-4.9c-0.5-1.4,0.2-2.5,1.5-4.2 c1.3-1.8,3.1-4.3,1.3-7.4c-1-1.6-2.9-2.5-4.8-3.3c-2.9-1.2-4.6-2.2-4.8-4.4h30.5l9.7,16.4c0.3,0.4,0.8,0.7,1.3,0.7c0,0,0,0,0,0 c0.5,0,1-0.3,1.3-0.7l7.9-12.6L93,84.5L71.7,84.5L71.7,84.5z"></path> </g> </svg> 